<svg xmlns="http://www.w3.org/2000/svg" viewBox="0 0 24 24" role="img" aria-label="Google Ads">
  <path fill="#FBBC04" d="m4.603 21.85c.23.413.567.758.973.995.41.237.88.366 1.365.366.484 0 .955-.13 1.36-.366.407-.236.744-.581.974-.995l6.987-12.107c.229-.414.349-.882.35-1.355.002-.473-.116-.94-.342-1.356a2.743 2.743 0 0 0-.97-1 2.686 2.686 0 0 0-1.36-.36 2.686 2.686 0 0 0-1.361.36 2.745 2.745 0 0 0-.97 1l-6.995 12.115a2.757 2.757 0 0 0-.002 2.703z"/>
  <path fill="#4285F4" d="m22.294 18.65-6.983-12.105a2.748 2.748 0 0 0-.977-.998 2.687 2.687 0 0 0-1.361-.355 2.686 2.686 0 0 0-1.354.375 2.747 2.747 0 0 0-.969 1.001l-1.712 2.965 5.277 9.141a2.755 2.755 0 0 0 .963 1.006 2.69 2.69 0 0 0 1.367.37 2.73 2.73 0 0 0 2.339-1.34z"/>
  <path fill="#34A853" d="m6.943 18.607a2.697 2.697 0 0 0-1.938.805 2.738 2.738 0 0 0-.81 1.94 2.738 2.738 0 0 0 .81 1.94 2.697 2.697 0 0 0 1.938.804 2.697 2.697 0 0 0 1.938-.804 2.738 2.738 0 0 0 .81-1.94 2.738 2.738 0 0 0-.81-1.94 2.697 2.697 0 0 0-1.938-.805z"/>
</svg>
