<svg xmlns="http://www.w3.org/2000/svg" viewBox="0 0 24 24" role="img" aria-label="Meta">
  <path fill="#0866FF" d="M6.915 4.03c-1.968 0-3.683 1.28-4.871 3.113C.554 9.52 0 12.604 0 14.845c0 .789.095 1.542.287 2.244l.02.078c.517 1.772 1.668 2.982 3.28 3.05.95.042 1.959-.317 3.239-1.562 1.547-1.503 3.462-4.088 6.105-8.323l.27-.43.473.774c.598.953 1.155 1.856 1.686 2.723l.215.351c1.61 2.631 2.778 4.303 3.804 5.293 1.04 1.004 1.88 1.266 2.741 1.266 1.664 0 3.025-1.002 3.817-2.59.425-.853.65-1.767.726-2.724.069-.882.042-1.842-.07-2.798-.112-.96-.313-1.936-.57-2.871-.647-2.358-1.566-4.355-2.834-5.846a7.116 7.116 0 0 0-1.795-1.555 4.6 4.6 0 0 0-2.31-.642c-.86 0-1.725.193-2.579.567-.854.374-1.686.918-2.484 1.599-1.33 1.135-2.583 2.66-3.738 4.32l-.192.279-.186-.275C10.59 5.66 9.315 4.03 6.915 4.03Zm.021 3.447c1.258 0 2.358.78 3.535 2.416.138.193.274.397.409.61l-.398.61c-2.348 3.566-3.957 5.786-5.148 6.946-1.076 1.046-1.833 1.26-2.333 1.26-.538 0-.979-.23-1.313-.684-.387-.527-.588-1.338-.588-2.41 0-2.143.516-4.648 1.552-6.47.92-1.613 2.115-2.278 3.284-2.278Zm9.807.023c.914 0 1.701.422 2.447 1.232 1.011 1.1 1.825 2.874 2.382 4.92.368 1.352.586 2.637.586 3.693 0 1.038-.24 1.917-.691 2.529-.381.517-.917.791-1.505.791-.608 0-1.09-.208-1.781-.874-.914-.882-2.002-2.474-3.464-4.85l-.215-.35c-.51-.833-1.073-1.747-1.703-2.749l-.473-.774.306-.467c1.09-1.664 1.996-2.483 2.861-2.945a3.078 3.078 0 0 1 1.25-.156z"/>
</svg>
