<svg xmlns="http://www.w3.org/2000/svg" viewBox="0 0 24 24" role="img" aria-label="TikTok">
  <path fill="#25F4EE" d="M19.321 5.562a5.124 5.124 0 0 1-.443-.258 6.228 6.228 0 0 1-1.137-.966c-.849-.971-1.166-1.956-1.282-2.645h.004c-.097-.57-.057-.939-.05-.939h-3.844v14.862c0 .199 0 .396-.008.59 0 .025-.003.047-.004.073l-.002.033v.008a3.272 3.272 0 0 1-1.647 2.597 3.216 3.216 0 0 1-1.6.422c-1.786 0-3.233-1.456-3.233-3.256s1.447-3.255 3.233-3.255c.338 0 .672.053.992.158l.004-3.915a7.12 7.12 0 0 0-5.48 1.599 7.522 7.522 0 0 0-1.639 2.02c-.154.265-.734 1.332-.804 3.065-.044 .984.251 2.002.392 2.422v.008c.088.248.432 1.094.991 1.807.451.575.983 1.08 1.581 1.49v-.008l.008.008c1.77 1.203 3.733 1.124 3.733 1.124.34-.014 1.477 0 2.769-.611 1.432-.677 2.249-1.687 2.249-1.687a7.785 7.785 0 0 0 1.351-2.243c.327-.865.436-1.902.436-2.316V8.373c.044.027.634.417.634.417s.85.544 2.177.898c.952.252 2.234.305 2.234.305V5.68c-.449.049-1.36-.093-2.294-.558z"/>
  <path fill="#FE2C55" d="M20.721 6.121a5.124 5.124 0 0 1-.443-.258 6.228 6.228 0 0 1-1.137-.966c-.849-.971-1.166-1.956-1.282-2.645h.004c-.097-.57-.057-.939-.05-.939h-3.844v14.862c0 .199 0 .396-.008.59 0 .025-.003.047-.004.073l-.002.033v.008a3.272 3.272 0 0 1-1.647 2.597 3.216 3.216 0 0 1-1.6.422c-1.786 0-3.233-1.456-3.233-3.256s1.447-3.255 3.233-3.255c.338 0 .672.053.992.158l.004-3.915a7.12 7.12 0 0 0-5.48 1.599 7.522 7.522 0 0 0-1.639 2.02c-.154.265-.734 1.332-.804 3.065-.044 .984.251 2.002.392 2.422v.008c.088.248.432 1.094.991 1.807.451.575.983 1.08 1.581 1.49v-.008l.008.008c1.77 1.203 3.733 1.124 3.733 1.124.34-.014 1.477 0 2.769-.611 1.432-.677 2.249-1.687 2.249-1.687a7.785 7.785 0 0 0 1.351-2.243c.327-.865.436-1.902.436-2.316V8.373c.044.027.634.417.634.417s.85.544 2.177.898c.952.252 2.234.305 2.234.305V5.68c-.449.049-1.36-.093-2.294-.558z"/>
  <path fill="#FFFFFF" d="M20.021 5.841a5.124 5.124 0 0 1-.443-.258 6.228 6.228 0 0 1-1.137-.966c-.849-.971-1.166-1.956-1.282-2.645h.004c-.097-.57-.057-.939-.05-.939h-3.844v14.862c0 .199 0 .396-.008.59 0 .025-.003.047-.004.073l-.002.033v.008a3.272 3.272 0 0 1-1.647 2.597 3.216 3.216 0 0 1-1.6.422c-1.786 0-3.233-1.456-3.233-3.256s1.447-3.255 3.233-3.255c.338 0 .672.053.992.158l.004-3.915a7.12 7.12 0 0 0-5.48 1.599 7.522 7.522 0 0 0-1.639 2.02c-.154.265-.734 1.332-.804 3.065-.044 .984.251 2.002.392 2.422v.008c.088.248.432 1.094.991 1.807.451.575.983 1.08 1.581 1.49v-.008l.008.008c1.77 1.203 3.733 1.124 3.733 1.124.34-.014 1.477 0 2.769-.611 1.432-.677 2.249-1.687 2.249-1.687a7.785 7.785 0 0 0 1.351-2.243c.327-.865.436-1.902.436-2.316V8.373c.044.027.634.417.634.417s.85.544 2.177.898c.952.252 2.234.305 2.234.305V5.68c-.449.049-1.36-.093-2.294-.558z"/>
</svg>
