<svg xmlns="http://www.w3.org/2000/svg" viewBox="0 0 800 450" preserveAspectRatio="xMidYMid slice" font-family="Barlow, system-ui, sans-serif">
  <defs>
    <linearGradient id="bg" x1="0" x2="0" y1="0" y2="1">
      <stop offset="0" stop-color="#0c0c0c"/>
      <stop offset="1" stop-color="#050505"/>
    </linearGradient>
    <linearGradient id="beigeGrad" x1="0" x2="1">
      <stop offset="0" stop-color="#C89D69"/>
      <stop offset="1" stop-color="#D4B48A"/>
    </linearGradient>
  </defs>
  <rect width="800" height="450" fill="url(#bg)"/>

  <!-- Top bar -->
  <rect x="20" y="20" width="760" height="40" rx="8" fill="#141414" stroke="#232323"/>
  <circle cx="42" cy="40" r="5" fill="url(#beigeGrad)"/>
  <rect x="56" y="33" width="110" height="14" rx="3" fill="#262626"/>
  <rect x="600" y="30" width="160" height="20" rx="10" fill="#0a0a0a" stroke="#232323"/>
  <circle cx="614" cy="40" r="4" fill="none" stroke="#555" stroke-width="1.2"/>
  <line x1="617" y1="43" x2="622" y2="48" stroke="#555" stroke-width="1.2" stroke-linecap="round"/>
  <rect x="630" y="36" width="70" height="8" rx="2" fill="#1e1e1e"/>

  <!-- Column template helper: 4 cols @ 180 wide + 10 gap, start x=20 -->
  <!-- Column 1: LEAD -->
  <g transform="translate(20,80)">
    <rect width="180" height="350" rx="10" fill="#101010" stroke="#1f1f1f"/>
    <text x="16" y="28" fill="#C89D69" font-size="11" font-weight="700" letter-spacing="1.5">LEAD</text>
    <rect x="150" y="16" width="18" height="18" rx="9" fill="#C89D69" fill-opacity="0.14"/>
    <text x="159" y="28" text-anchor="middle" fill="#C89D69" font-size="9" font-weight="700">7</text>

    <g transform="translate(10,46)">
      <rect width="160" height="82" rx="7" fill="#181818" stroke="#242424"/>
      <circle cx="22" cy="22" r="9" fill="#C89D69" fill-opacity="0.25"/>
      <rect x="38" y="17" width="100" height="8" rx="2" fill="#2f2f2f"/>
      <rect x="38" y="30" width="62" height="6" rx="2" fill="#1f1f1f"/>
      <rect x="12" y="48" width="136" height="6" rx="2" fill="#1d1d1d"/>
      <rect x="12" y="60" width="104" height="6" rx="2" fill="#1d1d1d"/>
      <rect x="12" y="72" width="48" height="4" rx="2" fill="#C89D69" fill-opacity="0.6"/>
    </g>
    <g transform="translate(10,138)">
      <rect width="160" height="82" rx="7" fill="#181818" stroke="#242424"/>
      <circle cx="22" cy="22" r="9" fill="#8f0000" fill-opacity="0.45"/>
      <rect x="38" y="17" width="80" height="8" rx="2" fill="#2f2f2f"/>
      <rect x="38" y="30" width="56" height="6" rx="2" fill="#1f1f1f"/>
      <rect x="12" y="48" width="120" height="6" rx="2" fill="#1d1d1d"/>
      <rect x="12" y="60" width="90" height="6" rx="2" fill="#1d1d1d"/>
      <rect x="12" y="72" width="42" height="4" rx="2" fill="#8f0000" fill-opacity="0.6"/>
    </g>
    <g transform="translate(10,230)">
      <rect width="160" height="82" rx="7" fill="#181818" stroke="#242424"/>
      <circle cx="22" cy="22" r="9" fill="#C89D69" fill-opacity="0.25"/>
      <rect x="38" y="17" width="90" height="8" rx="2" fill="#2f2f2f"/>
      <rect x="38" y="30" width="50" height="6" rx="2" fill="#1f1f1f"/>
      <rect x="12" y="48" width="128" height="6" rx="2" fill="#1d1d1d"/>
      <rect x="12" y="60" width="80" height="6" rx="2" fill="#1d1d1d"/>
    </g>
  </g>

  <!-- Column 2: CONTACTO -->
  <g transform="translate(210,80)">
    <rect width="180" height="350" rx="10" fill="#101010" stroke="#1f1f1f"/>
    <text x="16" y="28" fill="#C89D69" font-size="11" font-weight="700" letter-spacing="1.5">CONTACTO</text>
    <rect x="150" y="16" width="18" height="18" rx="9" fill="#C89D69" fill-opacity="0.14"/>
    <text x="159" y="28" text-anchor="middle" fill="#C89D69" font-size="9" font-weight="700">4</text>

    <g transform="translate(10,46)">
      <rect width="160" height="82" rx="7" fill="#1b1b1b" stroke="#C89D69" stroke-opacity="0.35"/>
      <circle cx="22" cy="22" r="9" fill="#C89D69" fill-opacity="0.35"/>
      <rect x="38" y="17" width="96" height="8" rx="2" fill="#333"/>
      <rect x="38" y="30" width="60" height="6" rx="2" fill="#1f1f1f"/>
      <rect x="12" y="48" width="136" height="6" rx="2" fill="#222"/>
      <rect x="12" y="60" width="100" height="6" rx="2" fill="#222"/>
      <rect x="12" y="72" width="60" height="4" rx="2" fill="#C89D69"/>
    </g>
    <g transform="translate(10,138)">
      <rect width="160" height="82" rx="7" fill="#181818" stroke="#242424"/>
      <circle cx="22" cy="22" r="9" fill="#C89D69" fill-opacity="0.25"/>
      <rect x="38" y="17" width="80" height="8" rx="2" fill="#2f2f2f"/>
      <rect x="38" y="30" width="46" height="6" rx="2" fill="#1f1f1f"/>
      <rect x="12" y="48" width="130" height="6" rx="2" fill="#1d1d1d"/>
      <rect x="12" y="60" width="90" height="6" rx="2" fill="#1d1d1d"/>
    </g>
  </g>

  <!-- Column 3: PROPUESTA -->
  <g transform="translate(400,80)">
    <rect width="180" height="350" rx="10" fill="#101010" stroke="#1f1f1f"/>
    <text x="16" y="28" fill="#C89D69" font-size="11" font-weight="700" letter-spacing="1.5">PROPUESTA</text>
    <rect x="150" y="16" width="18" height="18" rx="9" fill="#C89D69" fill-opacity="0.14"/>
    <text x="159" y="28" text-anchor="middle" fill="#C89D69" font-size="9" font-weight="700">3</text>

    <g transform="translate(10,46)">
      <rect width="160" height="82" rx="7" fill="#181818" stroke="#242424"/>
      <circle cx="22" cy="22" r="9" fill="#C89D69" fill-opacity="0.25"/>
      <rect x="38" y="17" width="98" height="8" rx="2" fill="#2f2f2f"/>
      <rect x="38" y="30" width="60" height="6" rx="2" fill="#1f1f1f"/>
      <rect x="12" y="48" width="130" height="6" rx="2" fill="#1d1d1d"/>
      <rect x="12" y="60" width="110" height="6" rx="2" fill="#1d1d1d"/>
      <text x="12" y="78" fill="#C89D69" font-size="10" font-weight="700">$8,200</text>
    </g>
    <g transform="translate(10,138)">
      <rect width="160" height="82" rx="7" fill="#181818" stroke="#242424"/>
      <circle cx="22" cy="22" r="9" fill="#C89D69" fill-opacity="0.25"/>
      <rect x="38" y="17" width="70" height="8" rx="2" fill="#2f2f2f"/>
      <rect x="38" y="30" width="40" height="6" rx="2" fill="#1f1f1f"/>
      <rect x="12" y="48" width="120" height="6" rx="2" fill="#1d1d1d"/>
      <rect x="12" y="60" width="80" height="6" rx="2" fill="#1d1d1d"/>
      <text x="12" y="78" fill="#C89D69" font-size="10" font-weight="700">$3,600</text>
    </g>
  </g>

  <!-- Column 4: GANADO -->
  <g transform="translate(590,80)">
    <rect width="190" height="350" rx="10" fill="#0f130f" stroke="#1b2a1b"/>
    <text x="16" y="28" fill="#4ade80" font-size="11" font-weight="700" letter-spacing="1.5">GANADO</text>
    <rect x="160" y="16" width="18" height="18" rx="9" fill="#4ade80" fill-opacity="0.14"/>
    <text x="169" y="28" text-anchor="middle" fill="#4ade80" font-size="9" font-weight="700">12</text>

    <g transform="translate(10,46)">
      <rect width="170" height="82" rx="7" fill="#141a14" stroke="#223022"/>
      <circle cx="22" cy="22" r="9" fill="#4ade80" fill-opacity="0.3"/>
      <rect x="38" y="17" width="100" height="8" rx="2" fill="#2f2f2f"/>
      <rect x="38" y="30" width="58" height="6" rx="2" fill="#1f1f1f"/>
      <rect x="12" y="48" width="136" height="6" rx="2" fill="#1d1d1d"/>
      <text x="12" y="72" fill="#4ade80" font-size="14" font-weight="800">$12,400</text>
    </g>
    <g transform="translate(10,138)">
      <rect width="170" height="82" rx="7" fill="#141a14" stroke="#223022"/>
      <circle cx="22" cy="22" r="9" fill="#4ade80" fill-opacity="0.3"/>
      <rect x="38" y="17" width="92" height="8" rx="2" fill="#2f2f2f"/>
      <rect x="38" y="30" width="48" height="6" rx="2" fill="#1f1f1f"/>
      <rect x="12" y="48" width="130" height="6" rx="2" fill="#1d1d1d"/>
      <text x="12" y="72" fill="#4ade80" font-size="14" font-weight="800">$8,750</text>
    </g>
  </g>
</svg>
